<svg id="Camada_1" data-name="Camada 1" xmlns="http://www.w3.org/2000/svg" viewBox="0 0 730.67 563.04"><defs><style>.cls-1{fill:#3f3d56;}.cls-2{fill:#e6e6e6;}.cls-3{fill:#6c63ff;}.cls-4{fill:#2f2e41;}.cls-5{fill:#a0616a;}.cls-6{opacity:0.1;isolation:isolate;}</style></defs><path class="cls-1" d="M730.67,472.81a1.19,1.19,0,0,1-1.19,1.19H1.19A1.19,1.19,0,0,1,0,472.81,1.16,1.16,0,0,1,.32,472H90a41.66,41.66,0,0,0,5.62-.38H729.48A1.19,1.19,0,0,1,730.67,472.81Z"/><rect class="cls-2" x="74.95" y="275.04" width="73.62" height="181.54"/><path class="cls-2" d="M113.88,327.48A33.28,33.28,0,1,1,80.6,294.2,33.28,33.28,0,0,1,113.88,327.48Z"/><circle class="cls-2" cx="49.84" cy="327.69" r="9.28"/><path class="cls-2" d="M172.38,327.28A19.37,19.37,0,1,1,153,307.92,19.37,19.37,0,0,1,172.38,327.28Z"/><circle class="cls-2" cx="172.38" cy="327.28" r="9.28"/><circle class="cls-2" cx="112.67" cy="209.48" r="9.28"/><path class="cls-2" d="M67.89,261.12h91.17a8.48,8.48,0,0,1,8.48,8.47h0a8.48,8.48,0,0,1-8.48,8.48H67.89a8.48,8.48,0,0,1-8.47-8.48h0A8.47,8.47,0,0,1,67.89,261.12Z"/><path class="cls-2" d="M113.48,218.76h0a35.12,35.12,0,0,1,35.1,35.1v12.51H78.38V253.86A35.12,35.12,0,0,1,113.48,218.76Z"/><rect class="cls-2" x="55.08" y="453.55" width="113.36" height="18.15"/><path class="cls-1" d="M208.22,361.3c9,5.41,9.85,8,15.28,10.19,2.75,1.13,7.9,2.68,17.83,1.28,13.69-1.94,22.13-7.47,45.85-20.38,16.93-9.21,25.2-13.24,36.94-15.29,8.8-1.53,13.91-1,17.83,0,13.68,3.41,21.14,13.95,22.93,16.56,6.18,9,7,17.81,7.64,25.47.86,9.66,2.1,23.6-5.09,34.39-9,13.52-21.57,7.53-43.31,20.38-24,14.2-20,28.21-39.48,35.66-24.92,9.54-52-5.53-53.5-6.36-25.79-14.8-31.07-41.65-44.57-39.49-8.07,1.29-8.88,11.31-21.66,14-2.39.51-12.23,2.59-19.1-3.82-4.22-3.94-4.09,4.88-1.91-.64,2.8-7.08,8.44-20.9,12.1-28.65,1.95-4.14-.25-5.42,1.27-16.56.74-5.44,1.12-8.19,2.55-11.46,3.54-8.12,10.41-12.32,15.28-15.29,5.93-3.61,11.75-7.17,19.11-6.37,4.21.46,7.47,2.43,14,6.37Z"/><path class="cls-1" d="M363.6,391.87c2.26,1.85,2.8,5.6,3.83,12.74.94,6.6.37,10.65,0,17.83-.56,10.78.32,9.78,0,24.2-.27,11.86-.4,17.8-1.28,22.92-1.58,9.22-2.42,5.68-10.19,29.3-1.57,4.79-2.83,8.86-6.37,10.19-4.43,1.66-9.53-2.06-10.19-2.55-1.07-.81-4.85-3.64-5.09-7.64-.3-5.08,5.45-6.37,10.19-14,3-4.78,3.67-9.55,5.09-19.11,1.36-9.08,2-13.63,0-17.83-3.7-7.66-12.17-10-12.73-10.19-5.07-1.34-6.71.56-12.74,0-5.64-.52-14.92-3.17-16.56-7.64-4.48-12.25,45.25-47.05,56-38.21Z"/><path class="cls-1" d="M343.23,374c2.26,1.85,2.79,5.6,3.82,12.74.94,6.6.37,10.64,0,17.83-.56,10.78.32,9.77,0,24.2-.27,11.86-.4,17.8-1.28,22.92-1.57,9.22-2.42,5.68-10.19,29.3-1.57,4.79-2.83,8.86-6.36,10.19-4.43,1.66-9.54-2.06-10.19-2.55-1.08-.81-4.86-3.64-5.1-7.64-.3-5.08,5.45-6.37,10.19-14,3-4.78,3.67-9.55,5.1-19.11,1.35-9.09,2-13.63,0-17.83-3.71-7.67-12.18-10-12.74-10.19-5.07-1.34-6.71.56-12.74,0-5.63-.52-14.92-3.17-16.56-7.64C282.7,400,332.43,365.2,343.23,374Z"/><path class="cls-1" d="M305,436.45c1.43,2.18,3.07,7.82,6.36,19.1,1.47,5,11,38.13,14,48.4a25.35,25.35,0,0,0,5.1,10.19c2.6,3,4,2.89,5.09,5.1,2.89,5.73-2.75,13.81-3.82,15.28-1.24,1.71-7,9.65-15.28,8.92-.86-.08-6.43-.58-7.64-3.83-1.86-5,9.05-9.65,8.91-17.83-.08-4.83-3.95-6.83-8.91-12.73-10.65-12.68-6.11-19.26-14-29.3-11.83-15-33.8-15.29-36.94-15.28-8.14,0-19.46,0-26.75,7.64-10.16,10.61-6,29.18-10.19,57.32a112.75,112.75,0,0,1-2.54,11.46c-3.08,11.39-5.53,14.33-6.37,15.28a19,19,0,0,1-19.11,6.37c-3-.68-5.72-1.29-7.64-3.82A9.21,9.21,0,0,1,184,549.8c1.53-3.43,4.69-2.88,8.91-6.36,3-2.47,4.54-5.89,7.65-12.74a82.9,82.9,0,0,0,5.09-14c1.92-7.39,2.16-13.09,2.55-24.2.33-9.36.17-17.14,0-25.47-.2-9.71-.47-12.88,0-19.11.49-6.54,1-12.91,2.55-16.56,8.45-19.63,75.57-23.38,94.25,5.1Z"/><path class="cls-1" d="M358.51,349.84c5.44-3,6.22-10.06,7.64-22.93,1-9.37,1.65-15-1.27-21.65a30.31,30.31,0,0,0-12.74-14c-1.51-.83-11.4-6.07-21.65-2.55-1.43.5-5.22,3.31-12.74,8.92-9,6.69-10.29,8-11.46,10.19-3.15,5.94-2.81,14,0,15.28,2.13,1,5.82-1.81,7.64-3.82,2.17-2.4,1.85-3.86,3.82-6.37,1.57-2,3-2.68,7.64-5.09,11.41-6,12-6.78,14-6.37,5.06,1,7.47,7.17,7.65,7.64,1.54,4.1.48,7.82-1.28,14A84.07,84.07,0,0,1,342,333.28c-3.32,7.94-4.19,8.54-3.82,10.19,1.23,5.42,13.19,10.35,20.38,6.37Z"/><path class="cls-3" d="M228,372.13c2.11.35,3.13,12.39,0,22.92a77.16,77.16,0,0,1-7.22,15.79c-.61,1-1.19,1.94-3,4.59-8.69,13-13.08,19.45-15.28,19.11-3-.46,5.11-7.42,5.73-14.08,1.15-12.38,6.7-13.91,16.56-31.84,5.33-9.71,1.54-16.76,3.18-16.49Z"/><path class="cls-4" d="M183.38,368.31c-1.06-5.42,5-12.95,11.46-14,9.44-1.55,17.64,11,20.38,19.1,3.78,11.17-.46,20.76-2.54,25.48-2.62,5.91-4.57,6.3-5.1,6.36-3.85.49-8.42-6.57-10.19-12.73-1.55-5.42.2-6.17-1.27-10.19-3-8.29-11.6-8.23-12.74-14Z"/><polygon class="cls-3" points="226.08 395.48 478.82 230.54 475.09 229.69 222.36 394.63 226.08 395.48"/><polygon class="cls-5" points="539.79 80.05 534.26 59.76 559.17 50.53 561.94 68.98 539.79 80.05"/><polygon class="cls-6" points="539.79 80.05 534.26 59.76 548.93 53.57 544.37 77.5 539.79 80.05"/><path class="cls-5" d="M466.88,254c-4.76-2.83-5-11.19-.56-18.66a21.69,21.69,0,0,1,7.09-7.45l2.61-4.26,33.05-59.25s14.47-55.87,20.35-62.62,14.41-5.17,14.41-5.17l7.55,6.71-27,79.14-33.26,46.84-4.46,6.52a21.87,21.87,0,0,1-3.15,9.79c-4.45,7.47-11.91,11.24-16.67,8.41Z"/><path class="cls-3" d="M538.43,74.26s10.51-.41,17.14,7.75S527.46,182.2,527.46,182.2l-28.29-1Z"/><circle class="cls-5" cx="541.18" cy="37.16" r="25.83"/><polygon class="cls-5" points="480.75 412.17 463.22 455.53 453.07 445.38 449.38 426.01 464.15 407.56 480.75 412.17"/><polygon class="cls-5" points="644.97 396.49 662.49 416.78 654.19 433.39 635.74 430.62 626.51 404.79 644.97 396.49"/><polygon class="cls-5" points="528.26 154.32 525.96 191.68 583.15 181.53 579.46 158.47 528.26 154.32"/><path class="cls-4" d="M525.5,192.14l57.65-18.91s21.22,42.44-1.84,69.19-99.64,179-99.64,179l-23.06-11.07,33.21-96.87L528.72,224l-3.22-31.83Z"/><polygon class="cls-4" points="581.31 226.74 603.45 323.61 649.58 398.33 625.59 412.17 561.01 323.61 539.79 255.34 581.31 226.74"/><path class="cls-4" d="M441.08,422.32h-16s-18.64-7.38-23,0,19.5,28.31,19.5,28.31,33.33,18.74,37.94,17.82,6.46-12,6.46-12l5.54-12.91-8.31,2.77s-11.07-6.46-8.3-17.53l-13.84-6.46Z"/><path class="cls-4" d="M658.8,419.55v-9.22l10.73,9.22s17.87,6.46,4,20.3-31.36,28.6-31.36,28.6-27.68,7.38-29.52-.93,0-11.66,0-11.66l10.14-4.94,9.23-24,14.76,1.85,12-9.23Z"/><path class="cls-4" d="M549,42.23l-8.3-.92L525.5,26.08s-13.84,7.39-13.84,1.85c0-25.83,15.68-24.91,28.6-26.75s11.53-2.31,15.68,4.61c1.9,3.16,8.76,5.07,8.76,5.07s12.92-17.53,19.38,3.69-1.85,86.72,4.61,92.26-26.52,11.06-22.94-10.62,10-54.88,6.33-62.26-4.61-5.54-4.61-5.54c4.57-1.87,7.56,31-9.68,32.63l-.47-16s-2.76-8.31-8.3-2.77Z"/><path class="cls-3" d="M537.49,74.06,565.16,63l36.91,110.7-75.93-2.76-6.84-33.05s-6.67-17.19-1.13-27.34,19.32-36.48,19.32-36.48Z"/><path class="cls-5" d="M609.51,259.5c-5.52.48-10.59-6.16-11.34-14.83a21.78,21.78,0,0,1,1.43-10.19l-.37-5-7.69-67.39S577.23,107,578.08,98s2.18-11.29,2.18-11.29l10,1,24.23,80,.29,57.45.18,7.9a22,22,0,0,1,3.14,9.79c.74,8.67-3.13,16.08-8.64,16.55Z"/><path class="cls-3" d="M562.86,71.75s8.3-6.46,18.45-3.69,35.57,97.79,35.57,97.79L593.3,181.53Z"/></svg>